<?xml version="1.0" encoding="iso-8859-1"?>
<!-- Generator: Adobe Illustrator 19.0.0, SVG Export Plug-In . SVG Version: 6.00 Build 0)  -->
<svg version="1.1" id="Capa_1" xmlns="http://www.w3.org/2000/svg" xmlns:xlink="http://www.w3.org/1999/xlink" x="0px" y="0px"
	 viewBox="0 0 512 512" style="enable-background:new 0 0 512 512;" xml:space="preserve">
<g>
	<g>
		<path d="M449.684,0H62.316C43.742,0,28.632,15.111,28.632,33.684v444.632c0,18.573,15.111,33.684,33.684,33.684h387.368
			c18.573,0,33.684-15.111,33.684-33.684V33.684C483.368,15.111,468.258,0,449.684,0z M442.947,471.579H69.053V40.421h373.895
			V471.579z"/>
	</g>
</g>
<g>
	<g>
		<path d="M338.526,235.789H172.8c-11.163,0-20.211,9.048-20.211,20.211s9.048,20.211,20.211,20.211h165.726
			c11.163,0,20.211-9.048,20.211-20.211S349.689,235.789,338.526,235.789z"/>
	</g>
</g>
<g>
	<g>
		<path d="M385.011,335.495H126.316c-11.163,0-20.211,9.048-20.211,20.211s9.048,20.211,20.211,20.211h258.695
			c11.17,0,20.211-9.048,20.211-20.211S396.174,335.495,385.011,335.495z"/>
	</g>
</g>
<g>
	<g>
		<path d="M321.011,20.211v59.958H190.316V20.211h-40.421v80.168c0,11.163,9.048,20.211,20.211,20.211h171.116
			c11.17,0,20.211-9.048,20.211-20.211V20.211H321.011z"/>
	</g>
</g>
<g>
</g>
<g>
</g>
<g>
</g>
<g>
</g>
<g>
</g>
<g>
</g>
<g>
</g>
<g>
</g>
<g>
</g>
<g>
</g>
<g>
</g>
<g>
</g>
<g>
</g>
<g>
</g>
<g>
</g>
</svg>
